<svg id="Laag_1" data-name="Laag 1" xmlns="http://www.w3.org/2000/svg" viewBox="0 0 780.26 109.37"><title>itnextsummit-logo</title><path d="M132.63,83.54V25.83h13.15V83.54Z" style="fill:#fff"/><path d="M182,37.84V83.54H168.87V37.84H150.32v-12h50.33v12Z" style="fill:#fff"/><path d="M245.21,83.54,218.06,47.59V83.54H204.91V25.83h11.92l27.25,36.33V25.83h13.15V83.54Z" style="fill:#fff"/><path d="M268,83.54V25.83h41.34v12H281.16V49.2h24.22V60.74H281.16v11h28.95V83.54Z" style="fill:#fff"/><path d="M412.93,37.84V83.54H399.78V37.84H381.24v-12h50.33v12Z" style="fill:#fff"/><path d="M491.64,33a42.46,42.46,0,0,0-19-4.35c-7.95,0-12.87,4.64-12.87,9.84,0,7,3.88,9.08,16.84,13.43,13.53,4.45,18.73,8.42,18.73,17.22,0,11.26-8.8,15.23-18.45,15.23a36.56,36.56,0,0,1-24.31-9l2.08-3.22a33.81,33.81,0,0,0,22.14,8.33c9.46,0,14.19-3.88,14.19-10.88s-3.6-9.74-17.41-14.38c-12.2-4.07-18.16-6.53-18.16-16.46,0-8,6.72-13.91,17.22-13.91a46.26,46.26,0,0,1,20.43,4.73Z" style="fill:#fff"/><path d="M552.65,58.09c0,16.84-8.42,26.3-23.46,26.3s-23.46-9.46-23.46-26.3V25.83h4.16V58.09c.09,14.29,7,22.23,19.3,22.23s19.21-7.95,19.21-22.23V25.83h4.26Z" style="fill:#fff"/><path d="M621,36.8V34.72L599.1,83.54h-4.16L573.08,34.72V36.8l-1.7,46.73h-4.26L569,25.83h4.83l22,49.48c.38,1,.85,2.08,1.14,3a25.43,25.43,0,0,1,1.23-3L620.2,25.83H625l2,57.71h-4.35Z" style="fill:#fff"/><path d="M698,36.8V34.72L676,83.54h-4.16L650,34.72V36.8l-1.7,46.73H644l1.89-57.71h4.82l22,49.48c.38,1,.85,2.08,1.14,3a25.6,25.6,0,0,1,1.23-3l21.95-49.48h4.83l2,57.71h-4.35Z" style="fill:#fff"/><path d="M720.95,83.54V25.83h4.26V83.54Z" style="fill:#fff"/><path d="M758.6,29.8V83.54h-4.26V29.8H732.68v-4h47.59v4Z" style="fill:#fff"/><path d="M322.37,83.54h-7.85l20.87-29.89-19.54-27.8h7.95l19.29,27.89" style="fill:#fff"/><path d="M371.32,83.53,354.75,59.7c-.57-.76-1-1.61-1.51-2.27-.38.66-.95,1.42-1.42,2.18L335.17,83.53h-7.85l20.81-29.79L328.52,25.85h7.91L351.82,47.4c.47.76,1,1.61,1.42,2.37.47-.76.95-1.51,1.51-2.37l15.32-21.56H378L358.25,53.74l20.92,29.79Z" style="fill:#fff"/><path d="M79,83.65,62.58,60.08c-.57-.76-1-1.61-1.51-2.27-.38.66-.95,1.42-1.42,2.18L43.18,83.65H35.32L56,54.12,36.08,25.92h8L59.64,47.78c.47.76,1,1.61,1.42,2.37.47-.76.95-1.51,1.51-2.37L78.1,25.92h8l-20,28.2L86.8,83.65Z" style="fill:#fff"/><path d="M48.32,57.71c-.38.66-.95,1.42-1.42,2.18L30.43,83.55H22.57L43.21,54,23.33,25.82h8L51,53.71m0,0" style="fill:#fff"/><path d="M54.68,109.37a54.68,54.68,0,1,1,54.68-54.68A54.75,54.75,0,0,1,54.68,109.37Zm0-103.06a48.37,48.37,0,1,0,48.37,48.37A48.43,48.43,0,0,0,54.68,6.31Z" style="fill:#fff"/></svg>